<svg version="1.1" id="Layer_1" xmlns="http://www.w3.org/2000/svg" xmlns:xlink="http://www.w3.org/1999/xlink" x="0px" y="0px"
	 width="100%" viewBox="0 0 1470 818" enable-background="new 0 0 1470 818" xml:space="preserve">
<path fill="#FFFFFF" opacity="1.000000" stroke="none" 
	d="
M1.000000,676.000000 
	C1.000000,451.064087 1.000000,226.128189 1.000000,1.000000 
	C270.359131,1.000000 539.718323,1.000000 809.333557,1.381597 
	C795.557678,3.255892 781.275940,3.586694 767.557068,6.535722 
	C750.449768,10.213116 733.538574,15.298192 717.046326,21.186153 
	C703.519714,26.015358 690.729858,32.908203 677.613403,38.886292 
	C677.594849,39.649342 677.576233,40.412395 677.557678,41.175446 
	C688.331360,46.796551 698.896118,52.873325 709.927368,57.933002 
	C726.890015,65.713219 744.993164,69.728195 763.280945,73.278137 
	C783.168457,77.138626 803.183228,79.352570 823.363892,79.882004 
	C835.277161,80.194557 847.228821,79.496880 859.148865,78.944221 
	C867.191528,78.571335 875.294800,78.182571 883.221680,76.887276 
	C904.925293,73.340805 926.558594,69.208405 947.168518,61.278465 
	C958.128601,57.061405 968.704285,51.845215 979.453491,47.080036 
	C979.459045,46.204803 979.464661,45.329575 979.470215,44.454342 
	C962.448608,36.336784 945.792786,27.305698 928.321472,20.311443 
	C900.726501,9.264419 871.871338,2.998085 842.019226,1.964421 
	C840.337036,1.906174 838.672668,1.333336 837.000000,1.000002 
	C1048.267456,1.000000 1259.534912,1.000000 1471.000000,1.000000 
	C1471.000000,241.359131 1471.000000,481.718323 1470.625244,722.344604 
	C1470.110962,719.964294 1470.368530,717.223206 1469.769653,714.684143 
	C1464.361450,691.752014 1445.582642,675.663330 1421.489990,675.966492 
	C1407.006714,676.148804 1392.519531,675.993164 1378.034058,676.009705 
	C1376.436768,676.011536 1374.839844,676.147766 1373.350098,676.216675 
	C1373.350098,721.372253 1373.350098,766.061707 1373.350098,810.600464 
	C1380.759277,810.600464 1387.812622,810.600464 1395.190430,810.600464 
	C1395.190430,797.938599 1395.190430,785.673584 1395.190430,773.000000 
	C1401.981445,773.000000 1408.447388,772.765076 1414.890259,773.049561 
	C1427.767578,773.618164 1438.042725,779.228088 1443.768921,790.888367 
	C1446.692749,796.842529 1447.619629,803.777344 1449.576050,810.719299 
	C1455.572754,810.719299 1462.638550,810.719299 1469.446533,810.719299 
	C1470.007080,807.934082 1470.503540,805.467041 1471.000000,803.000000 
	C1471.000000,808.330383 1471.000000,813.660767 1471.000000,818.995605 
	C1222.640869,819.000000 974.281677,819.000000 725.574097,818.647705 
	C744.347717,771.108093 763.469788,723.920837 782.889221,676.000000 
	C776.520752,676.000000 771.491394,676.435303 766.571533,675.887329 
	C760.719849,675.235657 758.012390,677.388184 755.860107,682.912231 
	C745.728516,708.915100 735.083923,734.718079 724.577942,760.702209 
	C724.112061,759.983582 723.659302,759.478333 723.419006,758.886841 
	C712.645325,732.364685 701.811279,705.866394 691.259521,679.256165 
	C690.243286,676.693542 689.229492,675.933533 686.759888,675.968323 
	C680.103943,676.062073 673.445862,676.000427 666.046692,676.000427 
	C669.118347,683.514954 672.079163,690.645264 674.953186,697.810364 
	C684.336609,721.204102 693.629883,744.634155 703.071777,768.004150 
	C709.954712,785.040405 717.017456,802.004028 724.000000,819.000000 
	C521.974182,819.000000 319.948334,819.000000 117.462288,818.610352 
	C121.314659,807.513245 125.644295,796.812561 129.936172,786.096741 
	C137.980972,766.010742 145.977554,745.905457 154.044174,725.828186 
	C160.642242,709.406250 167.312927,693.013550 174.197403,676.000000 
	C167.093430,676.000000 160.487061,676.148499 153.892899,675.929565 
	C151.123047,675.837585 149.868301,676.805176 148.855042,679.323425 
	C140.654587,699.704285 132.306229,720.025574 124.016846,740.370728 
	C121.365143,746.878967 118.755013,753.404175 115.657028,761.083862 
	C111.051476,749.416565 106.908455,739.163208 102.982323,728.827515 
	C101.804092,725.725830 99.820526,721.965027 100.647514,719.249878 
	C103.006744,711.504211 106.663879,704.158020 109.730934,696.622375 
	C112.473526,689.883911 115.110405,683.102417 117.928810,676.000000 
	C110.817818,676.000000 104.315559,676.202393 97.834984,675.915405 
	C94.549019,675.769897 93.041229,677.152893 92.030693,679.955505 
	C90.815170,683.326599 89.389191,686.621826 87.562553,691.175903 
	C85.089943,685.151489 83.210442,680.572144 81.441620,676.262451 
	C73.448532,676.262451 65.846291,676.262451 58.076347,676.262451 
	C58.137955,677.179138 58.018559,677.888794 58.248566,678.456970 
	C62.644978,689.316650 66.818077,700.278137 71.605515,710.964050 
	C74.731003,717.940430 75.899788,724.430176 71.443794,731.234802 
	C70.227264,733.092468 69.830521,735.476013 68.982811,737.588257 
	C65.990265,745.044617 62.965233,752.487915 59.854023,760.179749 
	C59.013676,759.378479 58.490551,759.103821 58.320774,758.685730 
	C47.606171,732.303894 36.810860,705.953430 26.377909,679.460388 
	C25.148554,676.338623 23.668680,675.935852 20.990839,675.971191 
	C14.328258,676.059021 7.663740,676.000000 1.000000,676.000000 
M919.801636,257.016632 
	C923.200745,255.288879 926.599854,253.561127 930.612549,251.816452 
	C931.424622,250.913406 932.236694,250.010376 933.418884,249.039551 
	C933.673767,249.023285 933.912354,248.952271 934.787231,248.653488 
	C935.667542,247.665298 936.547852,246.677124 937.878052,245.300018 
	C937.931824,244.905960 937.985535,244.511902 938.581238,243.895325 
	C939.184143,243.145798 939.787048,242.396255 940.899780,241.143402 
	C943.210999,235.428741 945.522217,229.714081 947.971863,223.215179 
	C948.021606,222.155655 948.071289,221.096115 948.723206,219.702499 
	C948.759949,218.801483 948.796692,217.900467 948.971252,216.195236 
	C948.591980,214.130310 948.212708,212.065384 947.967407,209.337936 
	C947.922729,208.891800 947.878113,208.445663 947.970276,207.287064 
	C947.591370,206.191238 947.212402,205.095398 946.969543,203.363617 
	C946.604187,202.449844 946.238831,201.536057 945.889465,200.221436 
	C945.889465,200.221436 945.653748,199.896851 945.530334,199.137482 
	C943.367676,195.720245 941.205078,192.302994 938.773376,188.278488 
	C932.167419,181.561386 925.495911,174.960968 915.349976,174.671341 
	C916.608337,179.780930 918.114746,184.586060 918.916077,189.506042 
	C919.784119,194.835953 919.020752,200.367538 915.589478,204.516891 
	C912.459045,208.302353 908.449463,211.689758 904.186829,214.136826 
	C896.841675,218.353531 889.302795,216.886566 881.811157,213.456436 
	C873.835938,209.804901 871.306274,202.074677 867.457764,195.186478 
	C860.075806,203.615509 860.251221,226.174896 867.622986,238.484070 
	C877.503235,254.982117 898.594360,263.703308 916.530212,257.989838 
	C916.530212,257.989838 917.000977,257.833405 917.606323,257.962830 
	C918.086792,257.677979 918.567261,257.393158 919.801636,257.016632 
M621.000000,137.500000 
	C621.000000,95.420471 621.000000,53.340939 621.000000,11.384311 
	C560.268860,11.384311 500.224701,11.384311 440.256653,11.384311 
	C440.256653,41.700794 440.256653,71.632309 440.256653,102.086777 
	C470.227936,102.086777 499.947601,102.086777 530.000000,102.086777 
	C530.000000,104.579338 530.000000,106.550354 530.000000,108.521362 
	C530.000000,205.330673 530.045776,302.140045 529.895325,398.949158 
	C529.885437,405.279144 528.958740,411.750092 527.453247,417.909760 
	C522.016418,440.153809 510.765808,458.863617 492.966919,473.613892 
	C475.086029,488.432129 454.230377,495.456207 431.572510,497.945465 
	C423.898926,498.788513 416.155273,498.994232 408.295685,499.500732 
	C408.295685,529.561279 408.295685,559.615356 408.295685,590.341675 
	C412.376160,589.866333 416.081451,589.353821 419.802612,589.016357 
	C431.257843,587.977356 442.761841,587.348755 454.168243,585.928650 
	C472.389404,583.660217 489.828491,578.221985 506.509827,570.715515 
	C535.340698,557.741882 559.330994,538.549438 578.973877,513.683044 
	C592.364075,496.731995 602.756531,478.294983 610.080017,458.015808 
	C618.091187,435.832367 620.751587,412.711151 620.854614,389.437103 
	C621.225159,305.792847 621.000000,222.145920 621.000000,137.500000 
M870.383972,494.989441 
	C776.991333,513.081726 703.944885,481.407959 649.093201,404.258545 
	C646.785828,440.754211 637.379089,474.852844 618.515564,506.668304 
	C627.550354,514.437256 636.046814,522.543152 645.351562,529.580444 
	C665.713989,544.980835 687.567749,557.924866 711.250000,567.705383 
	C746.143372,582.115906 782.603516,589.035095 820.159729,589.793396 
	C834.098389,590.074829 848.094482,588.127991 862.046326,586.978821 
	C879.356079,585.553040 896.093933,581.334717 912.604919,576.118896 
	C932.733643,569.760376 951.825867,561.154053 970.087830,550.527222 
	C988.997864,539.523254 1006.922485,527.123840 1022.440002,511.766296 
	C1034.495605,499.834991 1045.728271,486.978485 1056.459106,473.825439 
	C1070.844482,456.193024 1082.103149,436.432007 1092.855347,416.419952 
	C1094.281982,413.764740 1094.619019,412.303619 1090.724487,410.701233 
	C1072.341309,403.137512 1054.219482,394.940063 1035.986938,387.008606 
	C1027.963867,383.518402 1019.899475,380.123230 1011.828064,376.673950 
	C1009.318542,381.273651 1007.147827,385.466736 1004.783875,389.547882 
	C994.745422,406.878448 983.338135,423.273743 969.527100,437.789581 
	C962.139343,445.554382 954.326111,453.141632 945.711914,459.453705 
	C935.359070,467.039612 924.455383,474.269470 912.864929,479.666687 
	C899.514709,485.883392 885.153625,489.929352 870.383972,494.989441 
M713.323486,127.086128 
	C728.712463,133.321655 744.059326,139.663895 759.499939,145.768723 
	C785.365112,155.995056 807.359985,171.673965 825.846375,192.369522 
	C828.203125,195.007935 830.452087,197.742569 833.216858,200.977814 
	C834.963135,198.928558 836.248657,197.605621 837.323853,196.129578 
	C846.837708,183.068176 859.096497,172.987762 872.297180,163.951950 
	C890.054626,151.797073 909.783752,143.710541 929.698059,135.902664 
	C949.094604,128.297836 968.432678,120.488922 987.459656,112.013542 
	C1002.623535,105.258904 1014.153381,94.191620 1020.692688,78.627571 
	C1027.386230,62.696274 1028.152222,46.491005 1022.570801,29.967432 
	C1021.728821,30.238913 1021.302185,30.240673 1021.134216,30.449999 
	C1009.527161,44.913330 994.810608,55.415302 978.615662,64.102745 
	C957.598083,75.377167 935.060608,82.001305 911.893311,87.205376 
	C885.456543,93.143875 858.741333,95.996132 831.750732,95.840523 
	C818.280579,95.762863 804.774719,94.414780 791.368164,92.903488 
	C778.564880,91.460197 765.831665,89.273521 753.136047,87.026901 
	C736.089783,84.010361 719.598633,79.048798 703.728516,72.043869 
	C687.330444,64.805908 671.841797,56.164532 658.478088,44.024063 
	C653.441040,39.448025 648.185059,35.112926 642.589172,30.288933 
	C641.621582,36.239758 640.460388,41.175495 640.067139,46.171684 
	C638.072693,71.512611 646.839844,91.764748 668.385742,106.149063 
	C682.105652,115.308617 697.411011,120.919098 713.323486,127.086128 
M292.000366,807.315063 
	C291.608978,810.004578 292.482666,811.089722 295.475464,811.066345 
	C312.971222,810.929260 330.469696,811.099915 347.964569,810.914429 
	C351.488922,810.877075 355.088196,810.054138 358.502869,809.071838 
	C366.861450,806.667175 373.029327,801.173645 378.143097,794.344116 
	C385.705475,784.244385 386.437347,772.864075 384.005981,761.085571 
	C382.402863,753.319153 378.180725,746.882690 372.098511,741.654785 
	C379.634705,733.105408 382.451111,723.304077 382.107330,712.107239 
	C381.648041,697.147888 369.453400,681.203125 354.811188,678.078491 
	C349.239197,676.889404 343.469879,676.192688 337.775940,676.091370 
	C322.667664,675.822205 307.551422,676.000000 292.000000,676.000000 
	C292.000000,719.787964 292.000000,763.070007 292.000366,807.315063 
M971.014282,154.519897 
	C987.285522,172.525101 1000.767639,192.455917 1011.745422,214.289490 
	C1039.504272,202.294540 1066.892334,190.459885 1094.731934,178.430023 
	C1077.943604,145.496017 1058.414795,115.625359 1032.654175,89.120110 
	C1016.966003,119.956406 987.152100,129.828995 957.859802,141.988922 
	C962.574646,146.467850 966.546326,150.240753 971.014282,154.519897 
M1127.088257,772.569275 
	C1133.518066,759.157349 1135.539673,745.008545 1132.646362,730.520325 
	C1129.282837,713.677673 1121.075928,699.682922 1107.378784,688.653503 
	C1091.282349,675.691833 1072.848999,671.906494 1053.268066,674.284058 
	C1034.465088,676.567200 1019.182007,686.315918 1007.879211,701.672180 
	C995.360718,718.680176 991.318970,737.656311 995.726135,758.333374 
	C999.003906,773.711487 1006.962830,786.087524 1018.832336,796.519287 
	C1039.047485,814.285645 1069.729736,817.983521 1093.808838,806.512695 
	C1108.627441,799.453552 1119.687744,788.172302 1127.088257,772.569275 
M549.098511,766.613831 
	C552.554443,759.119202 553.002808,751.190063 553.078552,743.059631 
	C553.282104,721.199463 544.589417,703.690186 527.666260,690.264282 
	C515.932190,680.955200 502.446259,676.010254 487.323303,676.001770 
	C473.167419,675.993774 459.011566,676.000000 444.855682,676.000000 
	C443.282867,676.000000 441.710083,676.000000 440.248566,676.000000 
	C440.248566,721.389221 440.248566,765.968140 440.248566,811.000000 
	C455.104126,811.000000 469.716583,811.084961 484.326965,810.950134 
	C488.923767,810.907715 493.644348,810.838501 498.087402,809.818909 
	C522.154968,804.295776 539.641724,790.674377 549.098511,766.613831 
M1339.496582,811.000000 
	C1344.586914,811.000000 1349.677246,811.000000 1354.598145,811.000000 
	C1354.598145,803.239258 1354.598145,796.184082 1354.598145,788.805908 
	C1333.935059,788.805908 1313.672485,788.805908 1293.316772,788.805908 
	C1293.316772,777.079224 1293.316772,765.696533 1293.316772,753.796753 
	C1310.014038,753.796753 1326.400879,753.796753 1342.762451,753.796753 
	C1342.762451,746.339417 1342.762451,739.405518 1342.762451,731.955322 
	C1326.147949,731.955322 1309.760864,731.955322 1293.332031,731.955322 
	C1293.332031,720.381531 1293.332031,709.331665 1293.332031,697.769043 
	C1314.042969,697.769043 1334.426270,697.769043 1354.750000,697.769043 
	C1354.750000,690.313904 1354.750000,683.379761 1354.750000,676.287354 
	C1326.791504,676.287354 1299.083618,676.287354 1271.312744,676.287354 
	C1271.312744,721.275452 1271.312744,765.975403 1271.312744,811.000000 
	C1293.915527,811.000000 1316.206909,811.000000 1339.496582,811.000000 
M820.000000,714.500366 
	C820.000000,709.075378 820.000000,703.650452 820.000000,697.731567 
	C841.081116,697.731567 861.464844,697.731567 881.731384,697.731567 
	C881.731384,690.276184 881.731384,683.342102 881.731384,676.306030 
	C853.753784,676.306030 826.045837,676.306030 798.331421,676.306030 
	C798.331421,721.311890 798.331421,766.011719 798.331421,810.631165 
	C826.373108,810.631165 854.081726,810.631165 881.755859,810.631165 
	C881.755859,803.325745 881.755859,796.391785 881.755859,789.000000 
	C871.402588,789.000000 861.287109,789.000000 851.171692,789.000000 
	C840.903625,789.000000 830.635620,789.000000 820.335632,789.000000 
	C820.335632,777.040649 820.335632,765.657532 820.335632,753.759033 
	C837.052612,753.759033 853.439209,753.759033 869.743652,753.759033 
	C869.743652,746.300842 869.743652,739.366638 869.743652,732.000000 
	C861.373474,732.000000 853.253418,732.000000 845.133301,732.000000 
	C836.866882,732.000000 828.600464,732.000000 820.000000,732.000000 
	C820.000000,726.101379 820.000000,720.800354 820.000000,714.500366 
M1177.000000,790.501099 
	C1177.000000,784.741394 1177.000000,778.981750 1177.000000,773.000000 
	C1187.348511,773.000000 1196.997192,773.125061 1206.641357,772.968872 
	C1219.233765,772.765015 1229.899292,767.478821 1238.475464,758.743286 
	C1248.018677,749.022644 1252.051880,737.083130 1252.217041,723.117065 
	C1252.509766,698.361023 1229.776611,675.398621 1204.894531,675.940796 
	C1190.074097,676.263733 1175.240845,676.000000 1160.413330,676.000000 
	C1158.666382,676.000000 1156.919434,676.000000 1155.246338,676.000000 
	C1155.246338,721.360535 1155.246338,765.951416 1155.246338,810.699707 
	C1162.547241,810.699707 1169.599976,810.699707 1177.000000,810.699707 
	C1177.000000,804.102844 1177.000000,797.801514 1177.000000,790.501099 
M261.000000,745.458313 
	C261.000000,741.039734 261.000000,736.621155 261.000000,731.873718 
	C244.338135,731.873718 228.405731,731.873718 212.285187,731.873718 
	C212.285187,720.478088 212.285187,709.428772 212.285187,697.861938 
	C232.614960,697.861938 252.665756,697.861938 272.619232,697.861938 
	C272.619232,690.283325 272.619232,683.229248 272.619232,676.242554 
	C244.980026,676.242554 217.722275,676.242554 190.269348,676.242554 
	C190.269348,721.186096 190.269348,765.886902 190.269348,810.692200 
	C217.915085,810.692200 245.290436,810.692200 272.640015,810.692200 
	C272.640015,803.325989 272.640015,796.272705 272.640015,788.712158 
	C252.233109,788.712158 232.182236,788.712158 212.276001,788.712158 
	C212.276001,776.925293 212.276001,765.659241 212.276001,753.877502 
	C228.597839,753.877502 244.651886,753.877502 261.000000,753.877502 
	C261.000000,751.050781 261.000000,748.743225 261.000000,745.458313 
M621.500000,789.000000 
	C612.745483,789.000000 603.990967,789.000000 595.397278,789.000000 
	C595.397278,776.914246 595.397278,765.529297 595.397278,753.812256 
	C611.724426,753.812256 627.656372,753.812256 643.682007,753.812256 
	C643.682007,746.412964 643.682007,739.361450 643.682007,731.794189 
	C627.316528,731.794189 611.263428,731.794189 595.235840,731.794189 
	C595.235840,720.339722 595.235840,709.408203 595.235840,697.961304 
	C615.514099,697.961304 635.564636,697.961304 655.669556,697.961304 
	C655.669556,690.386841 655.669556,683.334961 655.669556,676.367859 
	C627.962280,676.367859 600.586975,676.367859 573.392883,676.367859 
	C573.392883,721.437012 573.392883,766.137390 573.392883,810.746338 
	C601.043640,810.746338 628.300903,810.746338 655.694458,810.746338 
	C655.694458,803.438965 655.694458,796.387634 655.694458,789.000000 
	C644.428223,789.000000 633.464111,789.000000 621.500000,789.000000 
M988.000000,798.525635 
	C988.000000,795.430115 988.000000,792.334595 988.000000,788.757446 
	C965.942261,788.757446 944.565186,788.757446 922.707336,788.757446 
	C922.707336,750.886414 922.707336,713.523071 922.707336,676.265015 
	C915.279846,676.265015 908.347351,676.265015 901.273438,676.265015 
	C901.273438,721.218994 901.273438,765.907532 901.273438,810.700806 
	C930.248047,810.700806 958.948242,810.700806 988.000000,810.700806 
	C988.000000,806.775879 988.000000,803.141479 988.000000,798.525635 
M738.000000,190.496246 
	C739.304138,185.084122 740.608215,179.671997 741.851685,174.511581 
	C727.431030,175.581268 711.634888,190.490753 709.264587,208.513474 
	C706.233154,231.563431 715.744507,249.021759 738.352539,257.488342 
	C757.403076,264.622711 778.978638,256.138428 789.007568,239.892288 
	C799.281616,223.249084 797.119995,202.555038 789.490356,195.249420 
	C784.086182,210.865128 773.917542,218.586823 758.742493,215.842880 
	C747.318726,213.777206 739.152588,205.948044 738.000000,190.496246 
M806.094666,323.357697 
	C813.350647,345.872192 820.606628,368.386688 827.862610,390.901215 
	C832.232483,380.697937 835.589233,370.551483 838.879150,360.383362 
	C845.334839,340.430695 851.617798,320.420471 858.300659,300.544495 
	C859.650146,296.530823 858.222473,295.796906 854.932190,294.948334 
	C842.147766,291.651306 829.116272,291.467896 816.115295,292.155914 
	C809.969177,292.481171 803.911011,294.467438 797.275635,295.809845 
	C800.464722,305.579590 803.233826,314.062805 806.094666,323.357697 
M676.508423,129.000931 
	C666.122986,123.109505 655.737549,117.218094 645.423889,111.367401 
	C645.423889,136.210785 645.423889,161.006195 645.423889,187.046097 
	C659.713867,167.650696 674.861267,150.718307 693.601379,136.363052 
	C687.634338,133.699966 682.457581,131.389618 676.508423,129.000931 
z"/>
<path fill="#C3971E" opacity="1.000000" stroke="none" 
	d="
M836.531372,1.000002 
	C838.672668,1.333336 840.337036,1.906174 842.019226,1.964421 
	C871.871338,2.998085 900.726501,9.264419 928.321472,20.311443 
	C945.792786,27.305698 962.448608,36.336784 979.470215,44.454342 
	C979.464661,45.329575 979.459045,46.204803 979.453491,47.080036 
	C968.704285,51.845215 958.128601,57.061405 947.168518,61.278465 
	C926.558594,69.208405 904.925293,73.340805 883.221680,76.887276 
	C875.294800,78.182571 867.191528,78.571335 859.148865,78.944221 
	C847.228821,79.496880 835.277161,80.194557 823.363892,79.882004 
	C803.183228,79.352570 783.168457,77.138626 763.280945,73.278137 
	C744.993164,69.728195 726.890015,65.713219 709.927368,57.933002 
	C698.896118,52.873325 688.331360,46.796551 677.557678,41.175446 
	C677.576233,40.412395 677.594849,39.649342 677.613403,38.886292 
	C690.729858,32.908203 703.519714,26.015358 717.046326,21.186153 
	C733.538574,15.298192 750.449768,10.213116 767.557068,6.535722 
	C781.275940,3.586694 795.557678,3.255892 809.794800,1.381597 
	C818.687561,1.000000 827.375183,1.000000 836.531372,1.000002 
z"/>
<path fill="#C3971E" opacity="1.000000" stroke="none" 
	d="
M1.000000,676.375000 
	C7.663740,676.000000 14.328258,676.059021 20.990839,675.971191 
	C23.668680,675.935852 25.148554,676.338623 26.377909,679.460388 
	C36.810860,705.953430 47.606171,732.303894 58.320774,758.685730 
	C58.490551,759.103821 59.013676,759.378479 59.854023,760.179749 
	C62.965233,752.487915 65.990265,745.044617 68.982811,737.588257 
	C69.830521,735.476013 70.227264,733.092468 71.443794,731.234802 
	C75.899788,724.430176 74.731003,717.940430 71.605515,710.964050 
	C66.818077,700.278137 62.644978,689.316650 58.248566,678.456970 
	C58.018559,677.888794 58.137955,677.179138 58.076347,676.262451 
	C65.846291,676.262451 73.448532,676.262451 81.441620,676.262451 
	C83.210442,680.572144 85.089943,685.151489 87.562553,691.175903 
	C89.389191,686.621826 90.815170,683.326599 92.030693,679.955505 
	C93.041229,677.152893 94.549019,675.769897 97.834984,675.915405 
	C104.315559,676.202393 110.817818,676.000000 117.928810,676.000000 
	C115.110405,683.102417 112.473526,689.883911 109.730934,696.622375 
	C106.663879,704.158020 103.006744,711.504211 100.647514,719.249878 
	C99.820526,721.965027 101.804092,725.725830 102.982323,728.827515 
	C106.908455,739.163208 111.051476,749.416565 115.657028,761.083862 
	C118.755013,753.404175 121.365143,746.878967 124.016846,740.370728 
	C132.306229,720.025574 140.654587,699.704285 148.855042,679.323425 
	C149.868301,676.805176 151.123047,675.837585 153.892899,675.929565 
	C160.487061,676.148499 167.093430,676.000000 174.197403,676.000000 
	C167.312927,693.013550 160.642242,709.406250 154.044174,725.828186 
	C145.977554,745.905457 137.980972,766.010742 129.936172,786.096741 
	C125.644295,796.812561 121.314659,807.513245 117.001038,818.610352 
	C116.555557,819.000000 116.111107,819.000000 115.220428,818.647461 
	C105.850098,796.230164 96.926003,774.165466 87.615715,751.145874 
	C78.127281,774.459778 69.063644,796.729858 60.000000,819.000000 
	C60.000000,819.000000 59.500000,819.000000 59.140652,818.651855 
	C52.856327,803.879578 46.850933,789.487732 41.023827,775.024109 
	C30.273870,748.341431 19.702841,721.586365 8.878313,694.934143 
	C6.654740,689.459229 3.646546,684.303101 1.000007,679.000000 
	C1.000000,678.250000 1.000000,677.500000 1.000000,676.375000 
z"/>
<path fill="#C3971E" opacity="1.000000" stroke="none" 
	d="
M1471.000000,802.625000 
	C1470.503540,805.467041 1470.007080,807.934082 1469.446533,810.719299 
	C1462.638550,810.719299 1455.572754,810.719299 1449.576050,810.719299 
	C1447.619629,803.777344 1446.692749,796.842529 1443.768921,790.888367 
	C1438.042725,779.228088 1427.767578,773.618164 1414.890259,773.049561 
	C1408.447388,772.765076 1401.981445,773.000000 1395.190430,773.000000 
	C1395.190430,785.673584 1395.190430,797.938599 1395.190430,810.600464 
	C1387.812622,810.600464 1380.759277,810.600464 1373.350098,810.600464 
	C1373.350098,766.061707 1373.350098,721.372253 1373.350098,676.216675 
	C1374.839844,676.147766 1376.436768,676.011536 1378.034058,676.009705 
	C1392.519531,675.993164 1407.006714,676.148804 1421.489990,675.966492 
	C1445.582642,675.663330 1464.361450,691.752014 1469.769653,714.684143 
	C1470.368530,717.223206 1470.110962,719.964294 1470.625244,722.805786 
	C1471.000000,724.066711 1471.000000,725.133362 1470.627930,726.789978 
	C1469.857788,742.482605 1462.451782,754.165466 1451.632324,764.107422 
	C1458.802368,770.955688 1464.135986,778.323669 1467.042725,787.256470 
	C1468.418945,791.485718 1469.684448,795.751038 1471.000000,800.000000 
	C1471.000000,800.750000 1471.000000,801.500000 1471.000000,802.625000 
M1442.037720,741.449524 
	C1453.710327,728.473511 1448.239380,705.411499 1430.533691,699.806091 
	C1418.805664,696.093079 1407.020752,699.127991 1395.362549,697.857666 
	C1395.362549,716.044250 1395.362549,733.411865 1395.362549,751.000000 
	C1403.696899,751.000000 1411.674438,750.830017 1419.641479,751.045776 
	C1428.365967,751.282104 1435.761475,748.674622 1442.037720,741.449524 
z"/>
<path fill="#C3971E" opacity="1.000000" stroke="none" 
	d="
M724.250000,819.000000 
	C717.017456,802.004028 709.954712,785.040405 703.071777,768.004150 
	C693.629883,744.634155 684.336609,721.204102 674.953186,697.810364 
	C672.079163,690.645264 669.118347,683.514954 666.046692,676.000427 
	C673.445862,676.000427 680.103943,676.062073 686.759888,675.968323 
	C689.229492,675.933533 690.243286,676.693542 691.259521,679.256165 
	C701.811279,705.866394 712.645325,732.364685 723.419006,758.886841 
	C723.659302,759.478333 724.112061,759.983582 724.577942,760.702209 
	C735.083923,734.718079 745.728516,708.915100 755.860107,682.912231 
	C758.012390,677.388184 760.719849,675.235657 766.571533,675.887329 
	C771.491394,676.435303 776.520752,676.000000 782.889221,676.000000 
	C763.469788,723.920837 744.347717,771.108093 725.112793,818.647705 
	C725.000000,819.000000 724.500000,819.000000 724.250000,819.000000 
z"/>
<path fill="#FFFFFF" opacity="1.000000" stroke="none" 
	d="
M1.000007,679.468628 
	C3.646546,684.303101 6.654740,689.459229 8.878313,694.934143 
	C19.702841,721.586365 30.273870,748.341431 41.023827,775.024109 
	C46.850933,789.487732 52.856327,803.879578 58.890652,818.651855 
	C39.709476,819.000000 20.418951,819.000000 1.000000,819.000000 
	C1.000000,772.645874 1.000000,726.291565 1.000007,679.468628 
z"/>
<path fill="#FFFFFF" opacity="1.000000" stroke="none" 
	d="
M60.468658,819.000000 
	C69.063644,796.729858 78.127281,774.459778 87.615715,751.145874 
	C96.926003,774.165466 105.850098,796.230164 114.887100,818.647461 
	C96.979103,819.000000 78.958214,819.000000 60.468658,819.000000 
z"/>
<path fill="#FFFFFF" opacity="1.000000" stroke="none" 
	d="
M1471.000000,799.531372 
	C1469.684448,795.751038 1468.418945,791.485718 1467.042725,787.256470 
	C1464.135986,778.323669 1458.802368,770.955688 1451.632324,764.107422 
	C1462.451782,754.165466 1469.857788,742.482605 1470.627930,727.189941 
	C1471.000000,751.020874 1471.000000,775.041809 1471.000000,799.531372 
z"/>
<path fill="#C3971E" opacity="1.000000" stroke="none" 
	d="
M621.000000,138.000000 
	C621.000000,222.145920 621.225159,305.792847 620.854614,389.437103 
	C620.751587,412.711151 618.091187,435.832367 610.080017,458.015808 
	C602.756531,478.294983 592.364075,496.731995 578.973877,513.683044 
	C559.330994,538.549438 535.340698,557.741882 506.509827,570.715515 
	C489.828491,578.221985 472.389404,583.660217 454.168243,585.928650 
	C442.761841,587.348755 431.257843,587.977356 419.802612,589.016357 
	C416.081451,589.353821 412.376160,589.866333 408.295685,590.341675 
	C408.295685,559.615356 408.295685,529.561279 408.295685,499.500732 
	C416.155273,498.994232 423.898926,498.788513 431.572510,497.945465 
	C454.230377,495.456207 475.086029,488.432129 492.966919,473.613892 
	C510.765808,458.863617 522.016418,440.153809 527.453247,417.909760 
	C528.958740,411.750092 529.885437,405.279144 529.895325,398.949158 
	C530.045776,302.140045 530.000000,205.330673 530.000000,108.521362 
	C530.000000,106.550354 530.000000,104.579338 530.000000,102.086777 
	C499.947601,102.086777 470.227936,102.086777 440.256653,102.086777 
	C440.256653,71.632309 440.256653,41.700794 440.256653,11.384311 
	C500.224701,11.384311 560.268860,11.384311 621.000000,11.384311 
	C621.000000,53.340939 621.000000,95.420471 621.000000,138.000000 
z"/>
<path fill="#C3971E" opacity="1.000000" stroke="none" 
	d="
M870.807739,494.953735 
	C885.153625,489.929352 899.514709,485.883392 912.864929,479.666687 
	C924.455383,474.269470 935.359070,467.039612 945.711914,459.453705 
	C954.326111,453.141632 962.139343,445.554382 969.527100,437.789581 
	C983.338135,423.273743 994.745422,406.878448 1004.783875,389.547882 
	C1007.147827,385.466736 1009.318542,381.273651 1011.828064,376.673950 
	C1019.899475,380.123230 1027.963867,383.518402 1035.986938,387.008606 
	C1054.219482,394.940063 1072.341309,403.137512 1090.724487,410.701233 
	C1094.619019,412.303619 1094.281982,413.764740 1092.855347,416.419952 
	C1082.103149,436.432007 1070.844482,456.193024 1056.459106,473.825439 
	C1045.728271,486.978485 1034.495605,499.834991 1022.440002,511.766296 
	C1006.922485,527.123840 988.997864,539.523254 970.087830,550.527222 
	C951.825867,561.154053 932.733643,569.760376 912.604919,576.118896 
	C896.093933,581.334717 879.356079,585.553040 862.046326,586.978821 
	C848.094482,588.127991 834.098389,590.074829 820.159729,589.793396 
	C782.603516,589.035095 746.143372,582.115906 711.250000,567.705383 
	C687.567749,557.924866 665.713989,544.980835 645.351562,529.580444 
	C636.046814,522.543152 627.550354,514.437256 618.515564,506.668304 
	C637.379089,474.852844 646.785828,440.754211 649.093201,404.258545 
	C703.944885,481.407959 776.991333,513.081726 870.807739,494.953735 
z"/>
<path fill="#C3971E" opacity="1.000000" stroke="none" 
	d="
M712.929565,127.044006 
	C697.411011,120.919098 682.105652,115.308617 668.385742,106.149063 
	C646.839844,91.764748 638.072693,71.512611 640.067139,46.171684 
	C640.460388,41.175495 641.621582,36.239758 642.589172,30.288933 
	C648.185059,35.112926 653.441040,39.448025 658.478088,44.024063 
	C671.841797,56.164532 687.330444,64.805908 703.728516,72.043869 
	C719.598633,79.048798 736.089783,84.010361 753.136047,87.026901 
	C765.831665,89.273521 778.564880,91.460197 791.368164,92.903488 
	C804.774719,94.414780 818.280579,95.762863 831.750732,95.840523 
	C858.741333,95.996132 885.456543,93.143875 911.893311,87.205376 
	C935.060608,82.001305 957.598083,75.377167 978.615662,64.102745 
	C994.810608,55.415302 1009.527161,44.913330 1021.134216,30.449999 
	C1021.302185,30.240673 1021.728821,30.238913 1022.570801,29.967432 
	C1028.152222,46.491005 1027.386230,62.696274 1020.692688,78.627571 
	C1014.153381,94.191620 1002.623535,105.258904 987.459656,112.013542 
	C968.432678,120.488922 949.094604,128.297836 929.698059,135.902664 
	C909.783752,143.710541 890.054626,151.797073 872.297180,163.951950 
	C859.096497,172.987762 846.837708,183.068176 837.323853,196.129578 
	C836.248657,197.605621 834.963135,198.928558 833.216858,200.977814 
	C830.452087,197.742569 828.203125,195.007935 825.846375,192.369522 
	C807.359985,171.673965 785.365112,155.995056 759.499939,145.768723 
	C744.059326,139.663895 728.712463,133.321655 712.929565,127.044006 
z"/>
<path fill="#C3971E" opacity="1.000000" stroke="none" 
	d="
M292.000183,806.833557 
	C292.000000,763.070007 292.000000,719.787964 292.000000,676.000000 
	C307.551422,676.000000 322.667664,675.822205 337.775940,676.091370 
	C343.469879,676.192688 349.239197,676.889404 354.811188,678.078491 
	C369.453400,681.203125 381.648041,697.147888 382.107330,712.107239 
	C382.451111,723.304077 379.634705,733.105408 372.098511,741.654785 
	C378.180725,746.882690 382.402863,753.319153 384.005981,761.085571 
	C386.437347,772.864075 385.705475,784.244385 378.143097,794.344116 
	C373.029327,801.173645 366.861450,806.667175 358.502869,809.071838 
	C355.088196,810.054138 351.488922,810.877075 347.964569,810.914429 
	C330.469696,811.099915 312.971222,810.929260 295.475464,811.066345 
	C292.482666,811.089722 291.608978,810.004578 292.000183,806.833557 
M314.000000,766.511841 
	C314.000000,773.919800 314.000000,781.327820 314.000000,788.996094 
	C324.281494,788.996094 333.900574,789.141052 343.510651,788.911011 
	C346.528900,788.838806 349.690521,788.178772 352.496033,787.059570 
	C360.264496,783.960693 363.413727,778.241699 362.999481,768.977661 
	C362.747101,763.333557 357.618866,755.959473 350.720123,755.328064 
	C338.680115,754.226135 326.466492,755.021118 314.000000,755.021118 
	C314.000000,758.259155 314.000000,761.888855 314.000000,766.511841 
M356.529480,724.999695 
	C364.523438,716.156250 358.424316,700.618469 347.867523,699.239746 
	C336.876099,697.804382 325.551605,698.919617 314.339844,698.919617 
	C314.339844,709.637024 314.339844,720.685791 314.339844,731.997192 
	C324.982819,731.997192 335.333038,732.544434 345.569397,731.704224 
	C349.216156,731.404846 352.586700,727.740417 356.529480,724.999695 
z"/>
<path fill="#C3971E" opacity="1.000000" stroke="none" 
	d="
M970.766113,154.266785 
	C966.546326,150.240753 962.574646,146.467850 957.859802,141.988922 
	C987.152100,129.828995 1016.966003,119.956406 1032.654175,89.120110 
	C1058.414795,115.625359 1077.943604,145.496017 1094.731934,178.430023 
	C1066.892334,190.459885 1039.504272,202.294540 1011.745422,214.289490 
	C1000.767639,192.455917 987.285522,172.525101 970.766113,154.266785 
z"/>
<path fill="#C3971E" opacity="1.000000" stroke="none" 
	d="
M1127.012207,772.945190 
	C1119.687744,788.172302 1108.627441,799.453552 1093.808838,806.512695 
	C1069.729736,817.983521 1039.047485,814.285645 1018.832336,796.519287 
	C1006.962830,786.087524 999.003906,773.711487 995.726135,758.333374 
	C991.318970,737.656311 995.360718,718.680176 1007.879211,701.672180 
	C1019.182007,686.315918 1034.465088,676.567200 1053.268066,674.284058 
	C1072.848999,671.906494 1091.282349,675.691833 1107.378784,688.653503 
	C1121.075928,699.682922 1129.282837,713.677673 1132.646362,730.520325 
	C1135.539673,745.008545 1133.518066,759.157349 1127.012207,772.945190 
M1103.081055,716.399170 
	C1101.212158,713.927490 1099.711670,711.025391 1097.411865,709.057129 
	C1086.249878,699.503906 1073.840088,693.902039 1058.491699,695.846436 
	C1047.977051,697.178528 1038.908691,701.086975 1031.433105,708.208984 
	C1018.353271,720.670044 1013.273621,736.064819 1017.120667,753.843933 
	C1020.383240,768.921814 1029.875000,779.848938 1043.288940,786.458435 
	C1062.274292,795.813171 1084.261353,791.067505 1098.717041,775.928528 
	C1113.423828,760.526245 1116.734741,735.097717 1103.081055,716.399170 
z"/>
<path fill="#C3971E" opacity="1.000000" stroke="none" 
	d="
M549.052429,767.008667 
	C539.641724,790.674377 522.154968,804.295776 498.087402,809.818909 
	C493.644348,810.838501 488.923767,810.907715 484.326965,810.950134 
	C469.716583,811.084961 455.104126,811.000000 440.248566,811.000000 
	C440.248566,765.968140 440.248566,721.389221 440.248566,676.000000 
	C441.710083,676.000000 443.282867,676.000000 444.855682,676.000000 
	C459.011566,676.000000 473.167419,675.993774 487.323303,676.001770 
	C502.446259,676.010254 515.932190,680.955200 527.666260,690.264282 
	C544.589417,703.690186 553.282104,721.199463 553.078552,743.059631 
	C553.002808,751.190063 552.554443,759.119202 549.052429,767.008667 
M461.000000,736.500000 
	C461.000000,753.911560 461.000000,771.323059 461.000000,789.485046 
	C471.764099,788.967957 481.828369,788.563477 491.882294,787.980225 
	C502.967987,787.337097 511.907166,781.819824 519.167358,774.089966 
	C527.904053,764.788025 531.406616,753.448120 531.198547,740.398376 
	C530.935425,723.896973 517.238586,706.602600 502.403564,700.971863 
	C488.933868,695.859314 475.053986,698.835388 461.000000,697.945312 
	C461.000000,710.910095 461.000000,723.205078 461.000000,736.500000 
z"/>
<path fill="#C3971E" opacity="1.000000" stroke="none" 
	d="
M1338.997314,811.000000 
	C1316.206909,811.000000 1293.915527,811.000000 1271.312744,811.000000 
	C1271.312744,765.975403 1271.312744,721.275452 1271.312744,676.287354 
	C1299.083618,676.287354 1326.791504,676.287354 1354.750000,676.287354 
	C1354.750000,683.379761 1354.750000,690.313904 1354.750000,697.769043 
	C1334.426270,697.769043 1314.042969,697.769043 1293.332031,697.769043 
	C1293.332031,709.331665 1293.332031,720.381531 1293.332031,731.955322 
	C1309.760864,731.955322 1326.147949,731.955322 1342.762451,731.955322 
	C1342.762451,739.405518 1342.762451,746.339417 1342.762451,753.796753 
	C1326.400879,753.796753 1310.014038,753.796753 1293.316772,753.796753 
	C1293.316772,765.696533 1293.316772,777.079224 1293.316772,788.805908 
	C1313.672485,788.805908 1333.935059,788.805908 1354.598145,788.805908 
	C1354.598145,796.184082 1354.598145,803.239258 1354.598145,811.000000 
	C1349.677246,811.000000 1344.586914,811.000000 1338.997314,811.000000 
z"/>
<path fill="#C3971E" opacity="1.000000" stroke="none" 
	d="
M820.000000,714.999878 
	C820.000000,720.800354 820.000000,726.101379 820.000000,732.000000 
	C828.600464,732.000000 836.866882,732.000000 845.133301,732.000000 
	C853.253418,732.000000 861.373474,732.000000 869.743652,732.000000 
	C869.743652,739.366638 869.743652,746.300842 869.743652,753.759033 
	C853.439209,753.759033 837.052612,753.759033 820.335632,753.759033 
	C820.335632,765.657532 820.335632,777.040649 820.335632,789.000000 
	C830.635620,789.000000 840.903625,789.000000 851.171692,789.000000 
	C861.287109,789.000000 871.402588,789.000000 881.755859,789.000000 
	C881.755859,796.391785 881.755859,803.325745 881.755859,810.631165 
	C854.081726,810.631165 826.373108,810.631165 798.331421,810.631165 
	C798.331421,766.011719 798.331421,721.311890 798.331421,676.306030 
	C826.045837,676.306030 853.753784,676.306030 881.731384,676.306030 
	C881.731384,683.342102 881.731384,690.276184 881.731384,697.731567 
	C861.464844,697.731567 841.081116,697.731567 820.000000,697.731567 
	C820.000000,703.650452 820.000000,709.075378 820.000000,714.999878 
z"/>
<path fill="#C3971E" opacity="1.000000" stroke="none" 
	d="
M1177.000000,791.000610 
	C1177.000000,797.801514 1177.000000,804.102844 1177.000000,810.699707 
	C1169.599976,810.699707 1162.547241,810.699707 1155.246338,810.699707 
	C1155.246338,765.951416 1155.246338,721.360535 1155.246338,676.000000 
	C1156.919434,676.000000 1158.666382,676.000000 1160.413330,676.000000 
	C1175.240845,676.000000 1190.074097,676.263733 1204.894531,675.940796 
	C1229.776611,675.398621 1252.509766,698.361023 1252.217041,723.117065 
	C1252.051880,737.083130 1248.018677,749.022644 1238.475464,758.743286 
	C1229.899292,767.478821 1219.233765,772.765015 1206.641357,772.968872 
	C1196.997192,773.125061 1187.348511,773.000000 1177.000000,773.000000 
	C1177.000000,778.981750 1177.000000,784.741394 1177.000000,791.000610 
M1225.091675,709.436768 
	C1221.566650,703.989868 1216.820923,699.537048 1210.334717,699.154114 
	C1199.379883,698.507263 1188.359131,698.976624 1177.307617,698.976624 
	C1177.307617,715.952148 1177.307617,733.309448 1177.307617,751.000000 
	C1186.395630,751.000000 1195.182617,751.160828 1203.961426,750.958923 
	C1214.726196,750.711304 1222.694580,745.512390 1227.427979,735.973938 
	C1231.818115,727.127075 1231.412231,718.291260 1225.091675,709.436768 
z"/>
<path fill="#C3971E" opacity="1.000000" stroke="none" 
	d="
M261.000000,745.946960 
	C261.000000,748.743225 261.000000,751.050781 261.000000,753.877502 
	C244.651886,753.877502 228.597839,753.877502 212.276001,753.877502 
	C212.276001,765.659241 212.276001,776.925293 212.276001,788.712158 
	C232.182236,788.712158 252.233109,788.712158 272.640015,788.712158 
	C272.640015,796.272705 272.640015,803.325989 272.640015,810.692200 
	C245.290436,810.692200 217.915085,810.692200 190.269348,810.692200 
	C190.269348,765.886902 190.269348,721.186096 190.269348,676.242554 
	C217.722275,676.242554 244.980026,676.242554 272.619232,676.242554 
	C272.619232,683.229248 272.619232,690.283325 272.619232,697.861938 
	C252.665756,697.861938 232.614960,697.861938 212.285187,697.861938 
	C212.285187,709.428772 212.285187,720.478088 212.285187,731.873718 
	C228.405731,731.873718 244.338135,731.873718 261.000000,731.873718 
	C261.000000,736.621155 261.000000,741.039734 261.000000,745.946960 
z"/>
<path fill="#C3971E" opacity="1.000000" stroke="none" 
	d="
M622.000000,789.000000 
	C633.464111,789.000000 644.428223,789.000000 655.694458,789.000000 
	C655.694458,796.387634 655.694458,803.438965 655.694458,810.746338 
	C628.300903,810.746338 601.043640,810.746338 573.392883,810.746338 
	C573.392883,766.137390 573.392883,721.437012 573.392883,676.367859 
	C600.586975,676.367859 627.962280,676.367859 655.669556,676.367859 
	C655.669556,683.334961 655.669556,690.386841 655.669556,697.961304 
	C635.564636,697.961304 615.514099,697.961304 595.235840,697.961304 
	C595.235840,709.408203 595.235840,720.339722 595.235840,731.794189 
	C611.263428,731.794189 627.316528,731.794189 643.682007,731.794189 
	C643.682007,739.361450 643.682007,746.412964 643.682007,753.812256 
	C627.656372,753.812256 611.724426,753.812256 595.397278,753.812256 
	C595.397278,765.529297 595.397278,776.914246 595.397278,789.000000 
	C603.990967,789.000000 612.745483,789.000000 622.000000,789.000000 
z"/>
<path fill="#C3971E" opacity="1.000000" stroke="none" 
	d="
M988.000000,799.016357 
	C988.000000,803.141479 988.000000,806.775879 988.000000,810.700806 
	C958.948242,810.700806 930.248047,810.700806 901.273438,810.700806 
	C901.273438,765.907532 901.273438,721.218994 901.273438,676.265015 
	C908.347351,676.265015 915.279846,676.265015 922.707336,676.265015 
	C922.707336,713.523071 922.707336,750.886414 922.707336,788.757446 
	C944.565186,788.757446 965.942261,788.757446 988.000000,788.757446 
	C988.000000,792.334595 988.000000,795.430115 988.000000,799.016357 
z"/>
<path fill="#C3971E" opacity="1.000000" stroke="none" 
	d="
M738.000000,190.945404 
	C739.152588,205.948044 747.318726,213.777206 758.742493,215.842880 
	C773.917542,218.586823 784.086182,210.865128 789.490356,195.249420 
	C797.119995,202.555038 799.281616,223.249084 789.007568,239.892288 
	C778.978638,256.138428 757.403076,264.622711 738.352539,257.488342 
	C715.744507,249.021759 706.233154,231.563431 709.264587,208.513474 
	C711.634888,190.490753 727.431030,175.581268 741.851685,174.511581 
	C740.608215,179.671997 739.304138,185.084122 738.000000,190.945404 
z"/>
<path fill="#C3971E" opacity="1.000000" stroke="none" 
	d="
M937.428162,245.688950 
	C936.547852,246.677124 935.667542,247.665298 934.437500,248.324402 
	C933.516968,247.022812 932.946167,246.050308 932.375366,245.077805 
	C931.983948,245.357941 931.592468,245.638062 931.200989,245.918182 
	C931.816895,246.981232 932.432861,248.044281 933.048767,249.107330 
	C932.236694,250.010376 931.424622,250.913406 930.304688,251.448029 
	C929.247070,250.134323 928.102661,248.257645 927.806519,248.383133 
	C923.188843,250.339737 918.680786,252.555176 914.019043,254.771912 
	C914.863708,256.160431 915.455994,257.134125 916.048340,258.107788 
	C898.594360,263.703308 877.503235,254.982117 867.622986,238.484070 
	C860.251221,226.174896 860.075806,203.615509 867.457764,195.186478 
	C871.306274,202.074677 873.835938,209.804901 881.811157,213.456436 
	C889.302795,216.886566 896.841675,218.353531 904.186829,214.136826 
	C908.449463,211.689758 912.459045,208.302353 915.589478,204.516891 
	C919.020752,200.367538 919.784119,194.835953 918.916077,189.506042 
	C918.114746,184.586060 916.608337,179.780930 915.349976,174.671341 
	C925.495911,174.960968 932.167419,181.561386 938.900146,188.966339 
	C940.317993,193.662277 941.001099,198.063660 945.653748,199.896851 
	C945.653748,199.896851 945.889465,200.221436 945.541565,200.556702 
	C945.740234,201.927841 946.286865,202.963715 946.833435,203.999573 
	C947.212402,205.095398 947.591370,206.191238 947.571411,207.650085 
	C946.599426,208.374191 946.026245,208.735275 945.453125,209.096344 
	C946.246582,209.397720 947.039978,209.699097 947.833435,210.000458 
	C948.212708,212.065384 948.591980,214.130310 948.546387,216.598526 
	C947.209656,217.440445 946.297791,217.879059 945.385925,218.317688 
	C946.297607,218.890656 947.209290,219.463623 948.120972,220.036591 
	C948.071289,221.096115 948.021606,222.155655 947.520752,223.609039 
	C946.035217,224.579407 944.506165,224.901917 944.056091,225.778473 
	C942.488342,228.831619 941.688416,232.332550 939.843079,235.173874 
	C938.125671,237.818298 938.823486,239.610016 940.389954,241.646698 
	C939.787048,242.396255 939.184143,243.145798 938.293701,243.638153 
	C937.366882,242.635330 936.727478,241.889694 936.088074,241.144043 
	C935.793091,241.433746 935.498108,241.723434 935.203125,242.013138 
	C935.944824,243.238403 936.686523,244.463669 937.428162,245.688950 
z"/>
<path fill="#C3971E" opacity="1.000000" stroke="none" 
	d="
M806.048828,322.951843 
	C803.233826,314.062805 800.464722,305.579590 797.275635,295.809845 
	C803.911011,294.467438 809.969177,292.481171 816.115295,292.155914 
	C829.116272,291.467896 842.147766,291.651306 854.932190,294.948334 
	C858.222473,295.796906 859.650146,296.530823 858.300659,300.544495 
	C851.617798,320.420471 845.334839,340.430695 838.879150,360.383362 
	C835.589233,370.551483 832.232483,380.697937 827.862610,390.901215 
	C820.606628,368.386688 813.350647,345.872192 806.048828,322.951843 
z"/>
<path fill="#C3971E" opacity="1.000000" stroke="none" 
	d="
M676.894653,129.040100 
	C682.457581,131.389618 687.634338,133.699966 693.601379,136.363052 
	C674.861267,150.718307 659.713867,167.650696 645.423889,187.046097 
	C645.423889,161.006195 645.423889,136.210785 645.423889,111.367401 
	C655.737549,117.218094 666.122986,123.109505 676.894653,129.040100 
z"/>
<path fill="#C3971E" opacity="1.000000" stroke="none" 
	d="
M916.289246,258.048828 
	C915.455994,257.134125 914.863708,256.160431 914.019043,254.771912 
	C918.680786,252.555176 923.188843,250.339737 927.806519,248.383133 
	C928.102661,248.257645 929.247070,250.134323 929.997925,251.456482 
	C926.599854,253.561127 923.200745,255.288879 919.272095,256.822540 
	C918.161987,257.030090 917.581482,257.431732 917.000977,257.833374 
	C917.000977,257.833405 916.530212,257.989838 916.289246,258.048828 
z"/>
<path fill="#C3971E" opacity="1.000000" stroke="none" 
	d="
M940.644897,241.395050 
	C938.823486,239.610016 938.125671,237.818298 939.843079,235.173874 
	C941.688416,232.332550 942.488342,228.831619 944.056091,225.778473 
	C944.506165,224.901917 946.035217,224.579407 947.451538,224.001160 
	C945.522217,229.714081 943.210999,235.428741 940.644897,241.395050 
z"/>
<path fill="#C3971E" opacity="1.000000" stroke="none" 
	d="
M945.592041,199.517166 
	C941.001099,198.063660 940.317993,193.662277 939.034668,189.269958 
	C941.205078,192.302994 943.367676,195.720245 945.592041,199.517166 
z"/>
<path fill="#C3971E" opacity="1.000000" stroke="none" 
	d="
M948.422119,219.869537 
	C947.209290,219.463623 946.297607,218.890656 945.385925,218.317688 
	C946.297791,217.879059 947.209656,217.440445 948.477478,217.000641 
	C948.796692,217.900467 948.759949,218.801483 948.422119,219.869537 
z"/>
<path fill="#C3971E" opacity="1.000000" stroke="none" 
	d="
M933.233826,249.073441 
	C932.432861,248.044281 931.816895,246.981232 931.200989,245.918182 
	C931.592468,245.638062 931.983948,245.357941 932.375366,245.077805 
	C932.946167,246.050308 933.516968,247.022812 934.111206,248.410889 
	C933.912354,248.952271 933.673767,249.023285 933.233826,249.073441 
z"/>
<path fill="#C3971E" opacity="1.000000" stroke="none" 
	d="
M937.653076,245.494476 
	C936.686523,244.463669 935.944824,243.238403 935.203125,242.013138 
	C935.498108,241.723434 935.793091,241.433746 936.088074,241.144043 
	C936.727478,241.889694 937.366882,242.635330 938.022766,243.749420 
	C937.985535,244.511902 937.931824,244.905960 937.653076,245.494476 
z"/>
<path fill="#C3971E" opacity="1.000000" stroke="none" 
	d="
M946.901489,203.681595 
	C946.286865,202.963715 945.740234,201.927841 945.533569,200.757111 
	C946.238831,201.536057 946.604187,202.449844 946.901489,203.681595 
z"/>
<path fill="#C3971E" opacity="1.000000" stroke="none" 
	d="
M947.900391,209.669189 
	C947.039978,209.699097 946.246582,209.397720 945.453125,209.096344 
	C946.026245,208.735275 946.599426,208.374191 947.503052,208.006317 
	C947.878113,208.445663 947.922729,208.891800 947.900391,209.669189 
z"/>
<path fill="#C3971E" opacity="1.000000" stroke="none" 
	d="
M917.303589,257.898071 
	C917.581482,257.431732 918.161987,257.030090 918.895142,256.868408 
	C918.567261,257.393158 918.086792,257.677979 917.303589,257.898071 
z"/>
<path fill="#FFFFFF" opacity="1.000000" stroke="none" 
	d="
M1441.787109,741.710815 
	C1435.761475,748.674622 1428.365967,751.282104 1419.641479,751.045776 
	C1411.674438,750.830017 1403.696899,751.000000 1395.362549,751.000000 
	C1395.362549,733.411865 1395.362549,716.044250 1395.362549,697.857666 
	C1407.020752,699.127991 1418.805664,696.093079 1430.533691,699.806091 
	C1448.239380,705.411499 1453.710327,728.473511 1441.787109,741.710815 
z"/>
<path fill="#FFFFFF" opacity="1.000000" stroke="none" 
	d="
M314.000000,766.015198 
	C314.000000,761.888855 314.000000,758.259155 314.000000,755.021118 
	C326.466492,755.021118 338.680115,754.226135 350.720123,755.328064 
	C357.618866,755.959473 362.747101,763.333557 362.999481,768.977661 
	C363.413727,778.241699 360.264496,783.960693 352.496033,787.059570 
	C349.690521,788.178772 346.528900,788.838806 343.510651,788.911011 
	C333.900574,789.141052 324.281494,788.996094 314.000000,788.996094 
	C314.000000,781.327820 314.000000,773.919800 314.000000,766.015198 
z"/>
<path fill="#FFFFFF" opacity="1.000000" stroke="none" 
	d="
M356.306396,725.305847 
	C352.586700,727.740417 349.216156,731.404846 345.569397,731.704224 
	C335.333038,732.544434 324.982819,731.997192 314.339844,731.997192 
	C314.339844,720.685791 314.339844,709.637024 314.339844,698.919617 
	C325.551605,698.919617 336.876099,697.804382 347.867523,699.239746 
	C358.424316,700.618469 364.523438,716.156250 356.306396,725.305847 
z"/>
<path fill="#FFFFFF" opacity="1.000000" stroke="none" 
	d="
M1103.300293,716.695679 
	C1116.734741,735.097717 1113.423828,760.526245 1098.717041,775.928528 
	C1084.261353,791.067505 1062.274292,795.813171 1043.288940,786.458435 
	C1029.875000,779.848938 1020.383240,768.921814 1017.120667,753.843933 
	C1013.273621,736.064819 1018.353271,720.670044 1031.433105,708.208984 
	C1038.908691,701.086975 1047.977051,697.178528 1058.491699,695.846436 
	C1073.840088,693.902039 1086.249878,699.503906 1097.411865,709.057129 
	C1099.711670,711.025391 1101.212158,713.927490 1103.300293,716.695679 
z"/>
<path fill="#FFFFFF" opacity="1.000000" stroke="none" 
	d="
M461.000000,736.000000 
	C461.000000,723.205078 461.000000,710.910095 461.000000,697.945312 
	C475.053986,698.835388 488.933868,695.859314 502.403564,700.971863 
	C517.238586,706.602600 530.935425,723.896973 531.198547,740.398376 
	C531.406616,753.448120 527.904053,764.788025 519.167358,774.089966 
	C511.907166,781.819824 502.967987,787.337097 491.882294,787.980225 
	C481.828369,788.563477 471.764099,788.967957 461.000000,789.485046 
	C461.000000,771.323059 461.000000,753.911560 461.000000,736.000000 
z"/>
<path fill="#FFFFFF" opacity="1.000000" stroke="none" 
	d="
M1225.320923,709.727661 
	C1231.412231,718.291260 1231.818115,727.127075 1227.427979,735.973938 
	C1222.694580,745.512390 1214.726196,750.711304 1203.961426,750.958923 
	C1195.182617,751.160828 1186.395630,751.000000 1177.307617,751.000000 
	C1177.307617,733.309448 1177.307617,715.952148 1177.307617,698.976624 
	C1188.359131,698.976624 1199.379883,698.507263 1210.334717,699.154114 
	C1216.820923,699.537048 1221.566650,703.989868 1225.320923,709.727661 
z"/>
</svg>